<svg width="190" height="104" viewBox="0 0 190 104" fill="none" xmlns="http://www.w3.org/2000/svg">
<g clip-path="url(#clip0)">
<path d="M138.231 84.0907C156.045 84.0907 170.485 69.6501 170.485 51.8367C170.485 34.0233 156.045 19.5828 138.231 19.5828C120.418 19.5828 105.977 34.0233 105.977 51.8367C105.977 69.6501 120.418 84.0907 138.231 84.0907Z" fill="#FFF"/>
<path d="M12.6712 66.0438C5.75963 66.0438 0 61.0521 0 53.3726C0 46.461 4.99168 40.7014 11.9032 40.7014C19.5828 40.7014 23.4225 47.229 23.4225 52.6046C23.4225 54.1405 22.2706 55.2925 20.7347 55.2925H5.37566C6.14361 59.1322 8.83144 61.4361 12.2872 61.4361C14.5911 61.4361 16.511 60.6681 18.0469 59.1322C18.4308 58.7483 18.8148 58.7483 19.5828 58.7483C20.7347 58.7483 21.8866 59.9002 21.8866 61.0521C21.8866 61.8201 21.5026 62.204 21.1187 62.588C19.1988 64.8919 16.127 66.0438 12.6712 66.0438ZM18.0469 51.4527C17.6629 47.9969 15.743 44.9251 11.9032 44.9251C8.44746 44.9251 6.14361 47.613 5.75963 51.4527H18.0469Z" fill="#FFF"/>
<path d="M52.9887 62.972C52.9887 64.5079 51.8368 65.6598 50.3009 65.6598C48.7649 65.6598 47.613 64.5079 47.613 62.972V61.4361C45.6931 64.1239 43.3893 66.0438 39.1656 66.0438C33.4059 66.0438 28.0303 61.4361 28.0303 53.3726C28.0303 45.3091 33.4059 40.7014 39.1656 40.7014C43.0053 40.7014 45.6931 42.6213 47.613 44.9251V34.5578C47.613 33.0219 48.7649 31.87 50.3009 31.87C51.8368 31.87 52.9887 33.0219 52.9887 34.5578V62.972ZM33.4059 53.3726C33.4059 57.9803 36.4777 61.4361 40.3175 61.4361C44.1572 61.4361 47.229 58.3643 47.229 53.7566C47.229 49.1489 43.7733 46.0771 40.3175 46.0771C36.8617 45.6931 33.4059 48.3809 33.4059 53.3726Z" fill="#FFF"/>
<path d="M81.7869 62.972C81.7869 64.5079 80.635 65.6598 79.0991 65.6598C77.5632 65.6598 76.4112 64.5079 76.4112 62.972V61.8201C74.8753 64.1239 72.5715 66.0438 68.7317 66.0438C63.356 66.0438 59.9003 62.204 59.9003 56.8284V43.7732C59.9003 42.2373 61.0522 41.0854 62.5881 41.0854C64.124 41.0854 65.2759 42.2373 65.2759 43.7732V54.9085C65.2759 58.7483 67.1958 60.6681 70.6516 60.6681C73.7234 60.6681 76.0272 58.3643 76.0272 54.5245V43.3892C76.0272 41.8533 77.1792 40.7014 78.7151 40.7014C80.251 40.7014 81.4029 41.8533 81.4029 43.3892V62.972H81.7869Z" fill="#FFF"/>
<path d="M89.8502 31.102C88.3143 31.102 86.7784 29.9501 86.7784 28.0302V15.743C86.7784 7.29553 93.69 0 102.521 0H115.193C116.729 0 118.264 1.15193 118.264 3.0718C118.264 4.99168 116.729 5.75963 115.193 5.75963H102.521C97.1458 5.75963 92.5381 10.3673 92.5381 15.743V28.4142C92.5381 29.9501 91.3862 31.102 89.8502 31.102Z" fill="#448AFF"/>
<path d="M186.228 31.102C184.692 31.102 183.156 29.9501 183.156 28.0302V15.743C183.156 10.3673 178.549 5.75963 173.173 5.75963H160.502C158.966 5.75963 157.43 4.60771 157.43 2.68783C157.43 0.767951 159.35 0 160.886 0H173.557C182.004 0 189.3 6.91156 189.3 15.743V28.4142C189.3 29.9501 188.148 31.102 186.228 31.102Z" fill="#448AFF"/>
<path d="M173.557 103.673H160.886C159.35 103.673 157.814 102.521 157.814 100.602C157.814 98.6817 158.966 97.5298 160.886 97.5298H173.557C178.933 97.5298 183.54 92.9221 183.54 87.5464V74.8752C183.54 73.3393 184.692 71.8034 186.612 71.8034C188.532 71.8034 189.684 72.9554 189.684 74.8752V87.5464C189.3 96.3779 182.388 103.673 173.557 103.673Z" fill="#448AFF"/>
<path d="M115.193 103.673H102.521C94.074 103.673 86.7784 96.7618 86.7784 87.9304V75.2592C86.7784 73.7233 87.9304 72.1874 89.8502 72.1874C91.7701 72.1874 92.9221 73.3393 92.9221 75.2592V87.9304C92.9221 93.306 97.5298 97.9137 102.905 97.9137H115.193C116.729 97.9137 118.264 99.0656 118.264 100.986C118.264 102.905 116.729 103.673 115.193 103.673Z" fill="#448AFF"/>
<path d="M120.952 40.7014C120.952 39.1655 122.488 37.6296 124.024 37.6296C125.56 37.6296 127.096 39.1655 127.096 40.7014V62.972C127.096 64.5079 125.56 66.0438 124.024 66.0438C122.488 66.0438 120.952 64.5079 120.952 62.972V40.7014Z" fill="black"/>
<path d="M143.607 40.7014C143.607 42.2373 144.759 43.3892 145.911 43.3892C146.679 43.3892 147.447 43.3892 147.831 43.7732C150.903 44.9251 153.206 47.9969 153.206 51.8367C153.206 56.8284 149.751 60.2842 144.759 60.2842H140.151V44.5412V43.7732V41.4694C140.151 39.9335 138.615 38.3976 137.079 38.3976C135.543 38.3976 134.008 39.9335 134.008 41.4694V63.356C134.008 64.8919 135.543 66.4278 137.079 66.4278H144.759C153.59 66.4278 159.734 60.2842 159.734 52.6046C159.734 46.0771 155.51 41.0854 149.367 39.1655C148.983 39.1655 147.831 38.7815 146.679 38.7815C145.143 38.0136 143.607 39.1655 143.607 40.7014Z" fill="black"/>
</g>
<defs>
<clipPath id="clip0">
<rect width="189.3" height="103.673" fill="white"/>
</clipPath>
</defs>
</svg>
